<mxfile host="app.diagrams.net" agent="Mozilla/5.0 (Windows NT 10.0; Win64; x64; rv:132.0) Gecko/20100101 Firefox/132.0" version="25.0.1">
  <diagram name="PÃ¡gina-1" id="LN__NtaQAvIcK_41Btqv">
    <mxGraphModel dx="840" dy="446" grid="1" gridSize="10" guides="1" tooltips="1" connect="1" arrows="1" fold="1" page="1" pageScale="1" pageWidth="1169" pageHeight="827" math="0" shadow="0">
      <root>
        <mxCell id="0" />
        <mxCell id="1" parent="0" />
        <mxCell id="QbwkD_adUcaZPoGNNJoF-2" value="robots (&lt;u&gt;robotId&lt;/u&gt;, design)" style="text;html=1;align=center;verticalAlign=middle;whiteSpace=wrap;rounded=0;" vertex="1" parent="1">
          <mxGeometry x="720" y="389" width="130" height="20" as="geometry" />
        </mxCell>
        <mxCell id="QbwkD_adUcaZPoGNNJoF-95" style="edgeStyle=orthogonalEdgeStyle;rounded=0;orthogonalLoop=1;jettySize=auto;html=1;exitX=0.5;exitY=1;exitDx=0;exitDy=0;entryX=0.69;entryY=0.006;entryDx=0;entryDy=0;entryPerimeter=0;" edge="1" parent="1">
          <mxGeometry relative="1" as="geometry">
            <mxPoint x="550" y="240" as="sourcePoint" />
            <mxPoint x="550.2" y="280.11999999999995" as="targetPoint" />
            <Array as="points">
              <mxPoint x="550" y="280" />
            </Array>
          </mxGeometry>
        </mxCell>
        <mxCell id="QbwkD_adUcaZPoGNNJoF-5" value="passengers (&lt;u&gt;passengerId&lt;/u&gt;, name, age, birthPlanet, destinationPlanet, birthSystem, destinationSystem, tutorId, cabinNumber, side, letter, isVIP, isCryoSleep, isMissing)" style="text;html=1;align=center;verticalAlign=middle;whiteSpace=wrap;rounded=0;" vertex="1" parent="1">
          <mxGeometry x="146" y="220" width="880" height="20" as="geometry" />
        </mxCell>
        <mxCell id="QbwkD_adUcaZPoGNNJoF-77" style="edgeStyle=orthogonalEdgeStyle;rounded=0;orthogonalLoop=1;jettySize=auto;html=1;exitX=0.869;exitY=1.028;exitDx=0;exitDy=0;entryX=0.5;entryY=0;entryDx=0;entryDy=0;exitPerimeter=0;" edge="1" parent="1" source="QbwkD_adUcaZPoGNNJoF-6" target="QbwkD_adUcaZPoGNNJoF-2">
          <mxGeometry relative="1" as="geometry">
            <Array as="points">
              <mxPoint x="900" y="370" />
              <mxPoint x="785" y="370" />
            </Array>
          </mxGeometry>
        </mxCell>
        <mxCell id="QbwkD_adUcaZPoGNNJoF-115" style="edgeStyle=orthogonalEdgeStyle;rounded=0;orthogonalLoop=1;jettySize=auto;html=1;exitX=0.75;exitY=1;exitDx=0;exitDy=0;entryX=0.492;entryY=-0.001;entryDx=0;entryDy=0;entryPerimeter=0;" edge="1" parent="1" target="QbwkD_adUcaZPoGNNJoF-114">
          <mxGeometry relative="1" as="geometry">
            <mxPoint x="866.5" y="300" as="sourcePoint" />
            <mxPoint x="834.0000000000002" y="330" as="targetPoint" />
            <Array as="points">
              <mxPoint x="867" y="320" />
              <mxPoint x="834" y="320" />
              <mxPoint x="834" y="340" />
            </Array>
          </mxGeometry>
        </mxCell>
        <mxCell id="QbwkD_adUcaZPoGNNJoF-6" value="cabins (&lt;u&gt;cabinNumber&lt;/u&gt;, &lt;u&gt;side&lt;/u&gt;, &lt;u&gt;letter&lt;/u&gt;, robotId)" style="text;html=1;align=center;verticalAlign=middle;whiteSpace=wrap;rounded=0;" vertex="1" parent="1">
          <mxGeometry x="700" y="280" width="230" height="20" as="geometry" />
        </mxCell>
        <mxCell id="QbwkD_adUcaZPoGNNJoF-71" style="edgeStyle=orthogonalEdgeStyle;rounded=0;orthogonalLoop=1;jettySize=auto;html=1;exitX=0.618;exitY=0.045;exitDx=0;exitDy=0;exitPerimeter=0;" edge="1" parent="1" source="QbwkD_adUcaZPoGNNJoF-19" target="QbwkD_adUcaZPoGNNJoF-84">
          <mxGeometry relative="1" as="geometry">
            <mxPoint x="465" y="310" as="targetPoint" />
            <Array as="points">
              <mxPoint x="614" y="380" />
              <mxPoint x="385" y="380" />
              <mxPoint x="385" y="330" />
              <mxPoint x="480" y="330" />
            </Array>
          </mxGeometry>
        </mxCell>
        <mxCell id="QbwkD_adUcaZPoGNNJoF-93" style="edgeStyle=orthogonalEdgeStyle;rounded=0;orthogonalLoop=1;jettySize=auto;html=1;exitX=0.833;exitY=0.021;exitDx=0;exitDy=0;entryX=0.565;entryY=0.985;entryDx=0;entryDy=0;entryPerimeter=0;exitPerimeter=0;" edge="1" parent="1" source="QbwkD_adUcaZPoGNNJoF-19" target="QbwkD_adUcaZPoGNNJoF-84">
          <mxGeometry relative="1" as="geometry">
            <Array as="points">
              <mxPoint x="685" y="320" />
              <mxPoint x="551" y="320" />
              <mxPoint x="551" y="300" />
            </Array>
          </mxGeometry>
        </mxCell>
        <mxCell id="QbwkD_adUcaZPoGNNJoF-19" value="atmospheres (&lt;u&gt;elementName&lt;/u&gt;, &lt;u&gt;planetName&lt;/u&gt;, &lt;u&gt;systemName&lt;/u&gt;)" style="text;html=1;align=center;verticalAlign=middle;whiteSpace=wrap;rounded=0;" vertex="1" parent="1">
          <mxGeometry x="413" y="440" width="326" height="20" as="geometry" />
        </mxCell>
        <mxCell id="QbwkD_adUcaZPoGNNJoF-39" value="mecanics (&lt;u&gt;mecanicId&lt;/u&gt;, name)" style="text;html=1;align=center;verticalAlign=middle;whiteSpace=wrap;rounded=0;" vertex="1" parent="1">
          <mxGeometry x="856" y="389" width="170" height="20" as="geometry" />
        </mxCell>
        <mxCell id="QbwkD_adUcaZPoGNNJoF-78" style="edgeStyle=orthogonalEdgeStyle;rounded=0;orthogonalLoop=1;jettySize=auto;html=1;exitX=0.454;exitY=0.008;exitDx=0;exitDy=0;entryX=0.5;entryY=1;entryDx=0;entryDy=0;exitPerimeter=0;" edge="1" parent="1" source="QbwkD_adUcaZPoGNNJoF-40" target="QbwkD_adUcaZPoGNNJoF-2">
          <mxGeometry relative="1" as="geometry">
            <Array as="points">
              <mxPoint x="853" y="430" />
              <mxPoint x="785" y="430" />
            </Array>
          </mxGeometry>
        </mxCell>
        <mxCell id="QbwkD_adUcaZPoGNNJoF-79" style="edgeStyle=orthogonalEdgeStyle;rounded=0;orthogonalLoop=1;jettySize=auto;html=1;exitX=0.683;exitY=0.008;exitDx=0;exitDy=0;exitPerimeter=0;entryX=0.556;entryY=0.991;entryDx=0;entryDy=0;entryPerimeter=0;" edge="1" parent="1" source="QbwkD_adUcaZPoGNNJoF-40" target="QbwkD_adUcaZPoGNNJoF-39">
          <mxGeometry relative="1" as="geometry">
            <mxPoint x="950" y="420" as="targetPoint" />
            <Array as="points">
              <mxPoint x="903" y="430" />
              <mxPoint x="950" y="430" />
            </Array>
          </mxGeometry>
        </mxCell>
        <mxCell id="QbwkD_adUcaZPoGNNJoF-40" value="breakdowns (&lt;u&gt;robotId&lt;/u&gt;, &lt;u&gt;mechanicId&lt;/u&gt;, &lt;u&gt;date&lt;/u&gt;)" style="text;html=1;align=center;verticalAlign=middle;whiteSpace=wrap;rounded=0;" vertex="1" parent="1">
          <mxGeometry x="753" y="440" width="220" height="20" as="geometry" />
        </mxCell>
        <mxCell id="QbwkD_adUcaZPoGNNJoF-64" value="entertainment (&lt;u&gt;facility&lt;/u&gt;)" style="text;html=1;align=center;verticalAlign=middle;whiteSpace=wrap;rounded=0;" vertex="1" parent="1">
          <mxGeometry x="193.5" y="440" width="130.5" height="20" as="geometry" />
        </mxCell>
        <mxCell id="QbwkD_adUcaZPoGNNJoF-68" style="edgeStyle=orthogonalEdgeStyle;rounded=0;orthogonalLoop=1;jettySize=auto;html=1;exitX=0.683;exitY=0.996;exitDx=0;exitDy=0;exitPerimeter=0;entryX=0.78;entryY=0.036;entryDx=0;entryDy=0;entryPerimeter=0;" edge="1" parent="1" target="QbwkD_adUcaZPoGNNJoF-64">
          <mxGeometry relative="1" as="geometry">
            <mxPoint x="306.26" y="299.92" as="sourcePoint" />
            <mxPoint x="296" y="410" as="targetPoint" />
            <Array as="points">
              <mxPoint x="306" y="310" />
              <mxPoint x="350" y="310" />
              <mxPoint x="350" y="380" />
              <mxPoint x="295" y="380" />
            </Array>
          </mxGeometry>
        </mxCell>
        <mxCell id="QbwkD_adUcaZPoGNNJoF-66" value="expenses (&lt;u&gt;passengerId&lt;/u&gt;, &lt;u&gt;facility&lt;/u&gt;, amount)" style="text;html=1;align=center;verticalAlign=middle;whiteSpace=wrap;rounded=0;" vertex="1" parent="1">
          <mxGeometry x="160" y="280" width="220" height="20" as="geometry" />
        </mxCell>
        <mxCell id="QbwkD_adUcaZPoGNNJoF-67" style="edgeStyle=orthogonalEdgeStyle;rounded=0;orthogonalLoop=1;jettySize=auto;html=1;exitX=0.457;exitY=-0.002;exitDx=0;exitDy=0;exitPerimeter=0;" edge="1" parent="1" source="QbwkD_adUcaZPoGNNJoF-66">
          <mxGeometry relative="1" as="geometry">
            <mxPoint x="281" y="290" as="sourcePoint" />
            <mxPoint x="260" y="240" as="targetPoint" />
            <Array as="points">
              <mxPoint x="261" y="260" />
              <mxPoint x="260" y="260" />
            </Array>
          </mxGeometry>
        </mxCell>
        <mxCell id="QbwkD_adUcaZPoGNNJoF-70" style="edgeStyle=orthogonalEdgeStyle;rounded=0;orthogonalLoop=1;jettySize=auto;html=1;exitX=0.843;exitY=0.062;exitDx=0;exitDy=0;exitPerimeter=0;entryX=0.263;entryY=0.008;entryDx=0;entryDy=0;entryPerimeter=0;" edge="1" parent="1" source="QbwkD_adUcaZPoGNNJoF-83" target="QbwkD_adUcaZPoGNNJoF-83">
          <mxGeometry relative="1" as="geometry">
            <mxPoint x="320" y="330" as="sourcePoint" />
            <mxPoint x="210" y="330" as="targetPoint" />
            <Array as="points">
              <mxPoint x="320" y="320" />
              <mxPoint x="210" y="320" />
            </Array>
          </mxGeometry>
        </mxCell>
        <mxCell id="QbwkD_adUcaZPoGNNJoF-80" style="edgeStyle=orthogonalEdgeStyle;rounded=0;orthogonalLoop=1;jettySize=auto;html=1;entryX=0.63;entryY=0.022;entryDx=0;entryDy=0;entryPerimeter=0;" edge="1" parent="1" target="QbwkD_adUcaZPoGNNJoF-5">
          <mxGeometry relative="1" as="geometry">
            <mxPoint x="264" y="220" as="sourcePoint" />
            <Array as="points">
              <mxPoint x="264" y="200" />
              <mxPoint x="700" y="200" />
              <mxPoint x="700" y="220" />
            </Array>
          </mxGeometry>
        </mxCell>
        <mxCell id="QbwkD_adUcaZPoGNNJoF-83" value="staff (&lt;u&gt;staffId&lt;/u&gt;, name, facility, bossId)" style="text;html=1;align=center;verticalAlign=middle;whiteSpace=wrap;rounded=0;" vertex="1" parent="1">
          <mxGeometry x="160" y="340" width="190" height="20" as="geometry" />
        </mxCell>
        <mxCell id="QbwkD_adUcaZPoGNNJoF-84" value="planets (&lt;u&gt;planetName&lt;/u&gt;, &lt;u&gt;systemName&lt;/u&gt;, mass, radius)" style="text;html=1;align=center;verticalAlign=middle;whiteSpace=wrap;rounded=0;" vertex="1" parent="1">
          <mxGeometry x="393" y="280" width="280" height="20" as="geometry" />
        </mxCell>
        <mxCell id="QbwkD_adUcaZPoGNNJoF-87" value="elements (&lt;u&gt;elementName&lt;/u&gt;, symbol, weight)" style="text;html=1;align=center;verticalAlign=middle;whiteSpace=wrap;rounded=0;" vertex="1" parent="1">
          <mxGeometry x="370" y="390" width="230" height="20" as="geometry" />
        </mxCell>
        <mxCell id="QbwkD_adUcaZPoGNNJoF-88" style="edgeStyle=orthogonalEdgeStyle;rounded=0;orthogonalLoop=1;jettySize=auto;html=1;entryX=0.408;entryY=1.047;entryDx=0;entryDy=0;entryPerimeter=0;exitX=0.421;exitY=0.021;exitDx=0;exitDy=0;exitPerimeter=0;" edge="1" parent="1" source="QbwkD_adUcaZPoGNNJoF-19" target="QbwkD_adUcaZPoGNNJoF-87">
          <mxGeometry relative="1" as="geometry">
            <mxPoint x="550" y="430" as="sourcePoint" />
            <mxPoint x="475" y="510" as="targetPoint" />
            <Array as="points">
              <mxPoint x="550" y="430" />
              <mxPoint x="464" y="430" />
            </Array>
          </mxGeometry>
        </mxCell>
        <mxCell id="QbwkD_adUcaZPoGNNJoF-96" style="edgeStyle=orthogonalEdgeStyle;rounded=0;orthogonalLoop=1;jettySize=auto;html=1;entryX=0.31;entryY=0.008;entryDx=0;entryDy=0;entryPerimeter=0;" edge="1" parent="1" target="QbwkD_adUcaZPoGNNJoF-84">
          <mxGeometry relative="1" as="geometry">
            <mxPoint x="480" y="240" as="sourcePoint" />
            <mxPoint x="429.9999999999999" y="280" as="targetPoint" />
            <Array as="points">
              <mxPoint x="480" y="240" />
            </Array>
          </mxGeometry>
        </mxCell>
        <mxCell id="QbwkD_adUcaZPoGNNJoF-98" style="edgeStyle=orthogonalEdgeStyle;rounded=0;orthogonalLoop=1;jettySize=auto;html=1;entryX=0.566;entryY=-0.006;entryDx=0;entryDy=0;entryPerimeter=0;" edge="1" parent="1" target="QbwkD_adUcaZPoGNNJoF-6">
          <mxGeometry relative="1" as="geometry">
            <mxPoint x="813" y="240" as="sourcePoint" />
            <mxPoint x="863" y="280" as="targetPoint" />
            <Array as="points">
              <mxPoint x="813" y="250" />
              <mxPoint x="830" y="250" />
            </Array>
          </mxGeometry>
        </mxCell>
        <mxCell id="QbwkD_adUcaZPoGNNJoF-99" style="edgeStyle=orthogonalEdgeStyle;rounded=0;orthogonalLoop=1;jettySize=auto;html=1;" edge="1" parent="1">
          <mxGeometry relative="1" as="geometry">
            <mxPoint x="760" y="240" as="sourcePoint" />
            <mxPoint x="790" y="280" as="targetPoint" />
            <Array as="points">
              <mxPoint x="760" y="250" />
              <mxPoint x="790" y="250" />
            </Array>
          </mxGeometry>
        </mxCell>
        <mxCell id="QbwkD_adUcaZPoGNNJoF-109" value="" style="endArrow=none;html=1;rounded=0;entryX=0.277;entryY=1;entryDx=0;entryDy=0;entryPerimeter=0;" edge="1" parent="1" target="QbwkD_adUcaZPoGNNJoF-5">
          <mxGeometry width="50" height="50" relative="1" as="geometry">
            <mxPoint x="480" y="260" as="sourcePoint" />
            <mxPoint x="413" y="240" as="targetPoint" />
            <Array as="points">
              <mxPoint x="430" y="260" />
              <mxPoint x="390" y="260" />
            </Array>
          </mxGeometry>
        </mxCell>
        <mxCell id="QbwkD_adUcaZPoGNNJoF-110" value="" style="endArrow=none;html=1;rounded=0;entryX=0.277;entryY=1;entryDx=0;entryDy=0;entryPerimeter=0;" edge="1" parent="1">
          <mxGeometry width="50" height="50" relative="1" as="geometry">
            <mxPoint x="550" y="260" as="sourcePoint" />
            <mxPoint x="640" y="240" as="targetPoint" />
            <Array as="points">
              <mxPoint x="640" y="260" />
            </Array>
          </mxGeometry>
        </mxCell>
        <mxCell id="QbwkD_adUcaZPoGNNJoF-111" value="" style="endArrow=none;html=1;rounded=0;exitX=0.817;exitY=0;exitDx=0;exitDy=0;exitPerimeter=0;" edge="1" parent="1" source="QbwkD_adUcaZPoGNNJoF-86">
          <mxGeometry width="50" height="50" relative="1" as="geometry">
            <mxPoint x="630" y="350" as="sourcePoint" />
            <mxPoint x="630" y="320" as="targetPoint" />
            <Array as="points" />
          </mxGeometry>
        </mxCell>
        <mxCell id="QbwkD_adUcaZPoGNNJoF-113" value="" style="endArrow=none;html=1;rounded=0;exitX=0.61;exitY=0;exitDx=0;exitDy=0;exitPerimeter=0;" edge="1" parent="1" source="QbwkD_adUcaZPoGNNJoF-86">
          <mxGeometry width="50" height="50" relative="1" as="geometry">
            <mxPoint x="570" y="330" as="sourcePoint" />
            <mxPoint x="480" y="330" as="targetPoint" />
            <Array as="points">
              <mxPoint x="570" y="330" />
              <mxPoint x="540" y="330" />
              <mxPoint x="480" y="330" />
            </Array>
          </mxGeometry>
        </mxCell>
        <mxCell id="QbwkD_adUcaZPoGNNJoF-86" value="satellites (&lt;u&gt;satelliteName&lt;/u&gt;, &lt;u&gt;planetName&lt;/u&gt;, &lt;u&gt;systemName&lt;/u&gt;)" style="text;html=1;align=center;verticalAlign=middle;whiteSpace=wrap;rounded=0;" vertex="1" parent="1">
          <mxGeometry x="393" y="340" width="290" height="20" as="geometry" />
        </mxCell>
        <mxCell id="QbwkD_adUcaZPoGNNJoF-114" value="decks (&lt;u&gt;letter&lt;/u&gt;,&amp;nbsp;class)" style="text;html=1;align=center;verticalAlign=middle;whiteSpace=wrap;rounded=0;" vertex="1" parent="1">
          <mxGeometry x="780" y="340" width="110" height="20" as="geometry" />
        </mxCell>
        <mxCell id="QbwkD_adUcaZPoGNNJoF-117" value="" style="endArrow=none;html=1;rounded=0;exitX=0.648;exitY=1.021;exitDx=0;exitDy=0;exitPerimeter=0;" edge="1" parent="1" source="QbwkD_adUcaZPoGNNJoF-83">
          <mxGeometry width="50" height="50" relative="1" as="geometry">
            <mxPoint x="240" y="430" as="sourcePoint" />
            <mxPoint x="300" y="380" as="targetPoint" />
            <Array as="points">
              <mxPoint x="283" y="380" />
            </Array>
          </mxGeometry>
        </mxCell>
        <mxCell id="QbwkD_adUcaZPoGNNJoF-118" style="edgeStyle=orthogonalEdgeStyle;rounded=0;orthogonalLoop=1;jettySize=auto;html=1;entryX=0.694;entryY=-0.005;entryDx=0;entryDy=0;entryPerimeter=0;" edge="1" parent="1">
          <mxGeometry relative="1" as="geometry">
            <mxPoint x="843" y="240" as="sourcePoint" />
            <mxPoint x="863.6199999999999" y="279.9" as="targetPoint" />
            <Array as="points">
              <mxPoint x="843" y="250" />
              <mxPoint x="864" y="250" />
              <mxPoint x="864" y="280" />
            </Array>
          </mxGeometry>
        </mxCell>
      </root>
    </mxGraphModel>
  </diagram>
</mxfile>
